<?xml version="1.0" encoding="UTF-8" standalone="no"?>
<!-- Generator: Adobe Illustrator 14.0.0, SVG Export Plug-In . SVG Version: 6.00 Build 43363)  -->

<svg
   xmlns:dc="http://purl.org/dc/elements/1.1/"
   xmlns:cc="http://creativecommons.org/ns#"
   xmlns:rdf="http://www.w3.org/1999/02/22-rdf-syntax-ns#"
   xmlns:svg="http://www.w3.org/2000/svg"
   xmlns="http://www.w3.org/2000/svg"
   xmlns:sodipodi="http://sodipodi.sourceforge.net/DTD/sodipodi-0.dtd"
   xmlns:inkscape="http://www.inkscape.org/namespaces/inkscape"
   version="1.0"
   id="Layer_1"
   x="0px"
   y="0px"
   width="101.00306"
   height="50.791668"
   viewBox="0 0 101.00306 50.791667"
   enable-background="new 0 0 100 49.797"
   xml:space="preserve"
   inkscape:version="0.48.3.1 r9886"
   sodipodi:docname="cannon.svg"><metadata
   id="metadata3198"><rdf:RDF><cc:Work
       rdf:about=""><dc:format>image/svg+xml</dc:format><dc:type
         rdf:resource="http://purl.org/dc/dcmitype/StillImage" /></cc:Work></rdf:RDF></metadata><defs
   id="defs3196" /><sodipodi:namedview
   pagecolor="#ffffff"
   bordercolor="#666666"
   borderopacity="1"
   objecttolerance="10"
   gridtolerance="10"
   guidetolerance="10"
   inkscape:pageopacity="0"
   inkscape:pageshadow="2"
   inkscape:window-width="1918"
   inkscape:window-height="1177"
   id="namedview3194"
   showgrid="false"
   inkscape:zoom="3.48"
   inkscape:cx="-0.072686461"
   inkscape:cy="25.38275"
   inkscape:window-x="0"
   inkscape:window-y="21"
   inkscape:window-maximized="0"
   inkscape:current-layer="Layer_1"
   fit-margin-top="0"
   fit-margin-left="0"
   fit-margin-right="0"
   fit-margin-bottom="0" />
<path
   d="m 1.5920262,0.51041836 c 1.866,2.23800004 4.372,2.23800004 4.372,2.23800004 l 65.8159998,1.439 c 6.001,0.206 7.092,4.974 7.23,7.6699996 0.573,-0.847 1.542,-1.4 2.637,-1.4 1.759,0 3.182,1.423 3.182,3.187 0,1.755 -1.423,3.17 -3.182,3.17 -1.233,0 -2.293,-0.704 -2.819,-1.724 -0.285,1.676 -1.099,4.459 -3.419,5.97 l 10.9,17.711 6.135,0.609 v -2.024 l 8.057004,0.577 -0.858004,10.95 -19.094,-2.34 -9.401,-15.513 c -0.285,10.682 -8.986,19.276 -19.743,19.276 -10.927,0 -19.79,-8.872 -19.79,-19.799 0,-4.926 1.865,-9.377 4.846,-12.844 l -31.2939998,-4.021 c 0,0 -2.468,-0.372 -4.66500002,1.818 L 1.5920262,0.51041836 z M 37.299026,29.132418 h 9.077 c 0.158,-0.585 0.403,-1.138 0.743,-1.62 l -6.373,-6.373 c -1.922,2.182 -3.155,4.937 -3.447,7.993 z m 6.348,-10.551 c -0.529,0.344 -0.996,0.747 -1.471,1.154 l 6.381,6.385 c 0.482,-0.309 1.028,-0.538 1.597,-0.681 v -6.024 l -6.507,-0.834 z m 8.508,1.095 v 5.669 c 0.637,0.103 1.233,0.309 1.775,0.609 l 5.353,-5.361 -7.128,-0.917 z m 9.73,1.245 -0.095,-0.012 -6.326,6.325 c 0.447,0.554 0.779,1.187 0.973,1.897 h 9.081 c -0.309,-3.153 -1.609,-5.996 -3.633,-8.21 z m -7.48,13.873 c -0.656,0.458 -1.423,0.751 -2.25,0.877 v 9.006 c 3.305,-0.174 6.29,-1.463 8.618,-3.511 l -6.368,-6.372 z m -4.25,0.782 c -0.751,-0.182 -1.439,-0.538 -2.024,-1.012 l -6.365,6.372 c 2.246,2.08 5.155,3.408 8.389,3.693 v -9.053 z m 15.438,-4.435 h -9.014 c -0.099,0.807 -0.36,1.558 -0.787,2.214 l 6.389,6.381 c 2.005,-2.341 3.265,-5.306 3.412,-8.595 z m -25.187,8.325 6.443,-6.428 c -0.332,-0.577 -0.537,-1.218 -0.616,-1.897 h -9.014 c 0.143,3.163 1.313,6.024 3.187,8.325 z"
   id="path3192"
   inkscape:connector-curvature="0"
   style="fill:#b0e0e6;stroke:#5f9ea0;stroke-linejoin:round;stroke-opacity:1" />
</svg>