<?xml version="1.0" encoding="UTF-8" standalone="no"?>
<!-- Generator: Adobe Illustrator 14.0.0, SVG Export Plug-In . SVG Version: 6.00 Build 43363)  -->

<svg
   xmlns:dc="http://purl.org/dc/elements/1.1/"
   xmlns:cc="http://creativecommons.org/ns#"
   xmlns:rdf="http://www.w3.org/1999/02/22-rdf-syntax-ns#"
   xmlns:svg="http://www.w3.org/2000/svg"
   xmlns="http://www.w3.org/2000/svg"
   xmlns:sodipodi="http://sodipodi.sourceforge.net/DTD/sodipodi-0.dtd"
   xmlns:inkscape="http://www.inkscape.org/namespaces/inkscape"
   version="1.0"
   id="Layer_1"
   x="0px"
   y="0px"
   width="100.99999"
   height="34.345951"
   viewBox="0 0 100.99999 34.345953"
   enable-background="new 0 0 100 33.336"
   xml:space="preserve"
   inkscape:version="0.48.3.1 r9886"
   sodipodi:docname="ramfire-gold.svg"><metadata
   id="metadata3445"><rdf:RDF><cc:Work
       rdf:about=""><dc:format>image/svg+xml</dc:format><dc:type
         rdf:resource="http://purl.org/dc/dcmitype/StillImage" /></cc:Work></rdf:RDF></metadata><defs
   id="defs3443" /><sodipodi:namedview
   pagecolor="#ffffff"
   bordercolor="#666666"
   borderopacity="1"
   objecttolerance="10"
   gridtolerance="10"
   guidetolerance="10"
   inkscape:pageopacity="0"
   inkscape:pageshadow="2"
   inkscape:window-width="1918"
   inkscape:window-height="1177"
   id="namedview3441"
   showgrid="false"
   inkscape:zoom="3.48"
   inkscape:cx="-0.074714863"
   inkscape:cy="17.175749"
   inkscape:window-x="0"
   inkscape:window-y="21"
   inkscape:window-maximized="0"
   inkscape:current-layer="Layer_1"
   fit-margin-top="0"
   fit-margin-left="0"
   fit-margin-right="0"
   fit-margin-bottom="0" />
<path
   clip-rule="evenodd"
   d="m 36.942998,27.293202 h 6.367 l -2.645,-3.025 h -18.159 l -0.007,-17.0620001 h -8.615 c -2.246,0 -3.66,0 -4.5880002,3.2750001 l -1.558,6.408 h -3.583 c -1.765,0 -1.765,0 -1.765,1.8 0,2.861 0,5.73 0,8.604 h -1.89 v 1.986 h 6.762 c 0.336,2.702 1.981,4.559 4.5680002,4.559 2.561,0 4.314,-1.895 4.886,-4.559 h 2.708 v -1.986 h 7.332 c -0.041,0.255 -0.056,0.812 -0.056,1.092 0,3.006 2.323,5.453 5.175,5.453 2.842,0 5.165,-2.447 5.165,-5.453 0,-0.347 -0.039,-0.775 -0.097,-1.092"
   id="path3437"
   style="fill:#ffd700;fill-rule:evenodd;stroke:#b8860b;stroke-width:1;stroke-linejoin:round;stroke-miterlimit:4;stroke-dasharray:none"
   inkscape:connector-curvature="0" />
<path
   clip-rule="evenodd"
   d="m 86.353998,33.598202 c 3.059,0 5.54,-2.626 5.54,-5.848 0,-0.409 -0.031,-0.809 -0.118,-1.195 H 100.5 V 0.50220189 H 24.554998 V 21.590202 h 18.111 l 4.294,4.965 h 33.976 c -0.077,0.387 -0.115,0.786 -0.115,1.195 0,3.222 2.487,5.848 5.533,5.848"
   id="path3439"
   style="fill:#ffd700;fill-rule:evenodd;stroke:#b8860b;stroke-width:1;stroke-linejoin:round;stroke-miterlimit:4;stroke-dasharray:none"
   inkscape:connector-curvature="0" />
</svg>