<?xml version="1.0" encoding="UTF-8" standalone="no"?>
<!-- Generator: Adobe Illustrator 14.0.0, SVG Export Plug-In . SVG Version: 6.00 Build 43363)  -->

<svg
   xmlns:dc="http://purl.org/dc/elements/1.1/"
   xmlns:cc="http://creativecommons.org/ns#"
   xmlns:rdf="http://www.w3.org/1999/02/22-rdf-syntax-ns#"
   xmlns:svg="http://www.w3.org/2000/svg"
   xmlns="http://www.w3.org/2000/svg"
   xmlns:sodipodi="http://sodipodi.sourceforge.net/DTD/sodipodi-0.dtd"
   xmlns:inkscape="http://www.inkscape.org/namespaces/inkscape"
   version="1.0"
   id="Layer_1"
   x="0px"
   y="0px"
   width="100.97303"
   height="70.525246"
   viewBox="0 0 100.97303 70.525248"
   enable-background="new 0 0 100 69.518"
   xml:space="preserve"
   inkscape:version="0.48.3.1 r9886"
   sodipodi:docname="duck.svg"><metadata
   id="metadata3142"><rdf:RDF><cc:Work
       rdf:about=""><dc:format>image/svg+xml</dc:format><dc:type
         rdf:resource="http://purl.org/dc/dcmitype/StillImage" /></cc:Work></rdf:RDF></metadata><defs
   id="defs3140" /><sodipodi:namedview
   pagecolor="#ffffff"
   bordercolor="#666666"
   borderopacity="1"
   objecttolerance="10"
   gridtolerance="10"
   guidetolerance="10"
   inkscape:pageopacity="0"
   inkscape:pageshadow="2"
   inkscape:window-width="1918"
   inkscape:window-height="1177"
   id="namedview3138"
   showgrid="false"
   inkscape:zoom="3.3948043"
   inkscape:cx="-1.3382358"
   inkscape:cy="35.264651"
   inkscape:window-x="0"
   inkscape:window-y="21"
   inkscape:window-maximized="0"
   inkscape:current-layer="Layer_1"
   fit-margin-top="0"
   fit-margin-left="0"
   fit-margin-right="0"
   fit-margin-bottom="0" />
<path
   d="m 90.317639,46.457596 6.436,-4.34 c 0,0 -26.712,-7.968 -43.114,-7.968 -11.254,0 -20.963,-3.163 -17.224,-9.721 3.751,-6.559 3.751,-24.82400024 -11.241,-23.89300024 0,0 -10.322,0 -11.254,9.83200024 0,0 0.821,3.629 -12.7729993,6.448 0,0 -2.33,1.397 1.888,3.286 0,0 20.6189993,-1.422 18.7309993,3.739 0,0 0.466,4.475 -6.436,7.147 -11.8299993,4.573 -23.6719993,42.416 25.657,38.787 0,0 19.333,-0.821 34.791,-9.733 0,0 17.702,-8.066 24.726001,-9.955 l -10.187001,-3.629 z"
   id="path3136"
   inkscape:connector-curvature="0"
   style="fill:#b0e0e6;stroke:#5f9ea0;stroke-width:1;stroke-linejoin:round;stroke-miterlimit:4;stroke-opacity:1;stroke-dasharray:none" />
</svg>