<?xml version="1.0" encoding="UTF-8" standalone="no"?>
<!-- Generator: Adobe Illustrator 14.0.0, SVG Export Plug-In . SVG Version: 6.00 Build 43363)  -->

<svg
   xmlns:dc="http://purl.org/dc/elements/1.1/"
   xmlns:cc="http://creativecommons.org/ns#"
   xmlns:rdf="http://www.w3.org/1999/02/22-rdf-syntax-ns#"
   xmlns:svg="http://www.w3.org/2000/svg"
   xmlns="http://www.w3.org/2000/svg"
   xmlns:sodipodi="http://sodipodi.sourceforge.net/DTD/sodipodi-0.dtd"
   xmlns:inkscape="http://www.inkscape.org/namespaces/inkscape"
   version="1.0"
   id="Layer_1"
   x="0px"
   y="0px"
   width="101.00823"
   height="80.107368"
   viewBox="0 0 101.00823 80.107371"
   enable-background="new 0 0 100 50.738"
   xml:space="preserve"
   inkscape:version="0.48.3.1 r9886"
   sodipodi:docname="superwalls-bronze.svg"><metadata
   id="metadata9015"><rdf:RDF><cc:Work
       rdf:about=""><dc:format>image/svg+xml</dc:format><dc:type
         rdf:resource="http://purl.org/dc/dcmitype/StillImage" /><dc:title /></cc:Work></rdf:RDF></metadata><defs
   id="defs9013" /><sodipodi:namedview
   pagecolor="#ffffff"
   bordercolor="#666666"
   borderopacity="1"
   objecttolerance="10"
   gridtolerance="10"
   guidetolerance="10"
   inkscape:pageopacity="0"
   inkscape:pageshadow="2"
   inkscape:window-width="1918"
   inkscape:window-height="1177"
   id="namedview9011"
   showgrid="false"
   inkscape:zoom="4.9214632"
   inkscape:cx="45.877516"
   inkscape:cy="28.137734"
   inkscape:window-x="0"
   inkscape:window-y="21"
   inkscape:window-maximized="0"
   inkscape:current-layer="Layer_1"
   fit-margin-top="0"
   fit-margin-left="0"
   fit-margin-right="0"
   fit-margin-bottom="0"
   showguides="true"
   inkscape:guide-bbox="true" />









<path
   inkscape:connector-curvature="0"
   id="path5534"
   d="m 71.738868,46.6204 h -21.846 l -6.706,-3.605 v -10.166 l 42.972,-3.966 v 13.267 l -14.421,2.812 10e-4,1.658 0,0 z"
   style="fill:#cd853f;stroke:#a0522d;stroke-width:1;stroke-linejoin:round" /><path
   inkscape:connector-curvature="0"
   id="path5536"
   d="m 2.0168688,60.6494 98.4910012,0.175 -0.017,-18.314 -28.248002,6.202 h -41.098 l -29.1279992,7.786 c -1.71700106,0.696 -2.28600106,4.151 0,4.151 z"
   style="fill:#cd853f;stroke:#a0522d;stroke-width:1;stroke-linejoin:round" /><path
   inkscape:connector-curvature="0"
   id="path1874"
   d="m 30.038868,68.9144 c 0,3.498 -2.832,6.336 -6.33,6.346 -3.498,0.009 -6.342,-2.815 -6.361,-6.312 -0.017,-3.498 2.8,-6.351 6.297,-6.376 3.498,-0.026 6.357,2.782 6.394,6.28"
   style="fill:#cd853f;stroke:#a0522d;stroke-width:1;stroke-linejoin:round" /><path
   inkscape:connector-curvature="0"
   id="path1876"
   d="m 44.319868,68.9144 c 0,3.498 -2.831,6.336 -6.329,6.346 -3.497,0.009 -6.343,-2.815 -6.359,-6.312 -0.017,-3.498 2.798,-6.351 6.296,-6.376 3.498,-0.026 6.357,2.782 6.392,6.28"
   style="fill:#cd853f;stroke:#a0522d;stroke-width:1;stroke-linejoin:round" /><path
   inkscape:connector-curvature="0"
   id="path1880"
   d="m 58.350868,68.9144 c 0,3.498 -2.832,6.336 -6.33,6.346 -3.498,0.009 -6.342,-2.815 -6.36,-6.312 -0.018,-3.498 2.8,-6.351 6.298,-6.376 3.496,-0.026 6.356,2.782 6.393,6.28"
   style="fill:#cd853f;stroke:#a0522d;stroke-width:1;stroke-linejoin:round" /><path
   inkscape:connector-curvature="0"
   id="path3511"
   d="m 72.713868,68.9144 c 0,3.498 -2.831,6.336 -6.329,6.346 -3.498,0.009 -6.342,-2.815 -6.36,-6.312 -0.018,-3.498 2.8,-6.351 6.297,-6.376 3.497,-0.026 6.357,2.782 6.392,6.28"
   style="fill:#cd853f;stroke:#a0522d;stroke-width:1;stroke-linejoin:round" /><path
   inkscape:connector-curvature="0"
   id="path1890"
   d="m 7.7458688,62.6554 -2.958,0.135 c -1.647,4.099 -0.275,7.849 4.255,10.624 5.1029992,3.128 11.2349992,6.141 13.0109992,6.188 l 60.343,0.019 c 1.776,-0.047 7.909,-3.06 13.013,-6.188 4.529,-2.776 5.901002,-6.535 4.254,-10.634 l -2.958,-0.126 c 0.891,3.835 1.658,6.423 -3.887,9.049 -4.537,2.149 -9.335,4.709 -10.083,4.863 l -61.021,-0.01 c -0.748,-0.154 -5.535,-2.723 -10.073,-4.872 -5.5439992,-2.625 -4.7849992,-5.214 -3.8959992,-9.048 z M 0.53686874,34.8014 v 4.203 l 41.20599926,1.4 v -5.668 l -41.20599926,0.065 z"
   style="fill:#cd853f;stroke:#a0522d;stroke-width:1;stroke-linejoin:round" /><path
   inkscape:connector-curvature="0"
   id="path1884"
   d="m 86.966868,69.2464 c 0,3.498 -2.831,6.336 -6.328,6.345 -3.499,0.01 -6.344,-2.814 -6.361,-6.312 -0.017,-3.498 2.8,-6.351 6.298,-6.377 3.497,-0.027 6.357,2.782 6.392,6.28"
   style="fill:#cd853f;stroke:#a0522d;stroke-width:1;stroke-linejoin:round" /><path
   inkscape:connector-curvature="0"
   id="path1886"
   d="m 95.762868,66.2984 c 0,1.995 -1.613,3.612 -3.607,3.616 -1.994,0.006 -3.616,-1.604 -3.625,-3.599 -0.011,-1.993 1.595,-3.618 3.589,-3.633 1.993,-0.016 3.624,1.586 3.644,3.579"
   style="fill:#cd853f;stroke:#a0522d;stroke-width:1;stroke-linejoin:round" /><path
   inkscape:connector-curvature="0"
   id="path1888"
   d="m 15.869868,66.2984 c 0,1.995 -1.615,3.612 -3.608,3.616 -1.993999,0.006 -3.6159992,-1.604 -3.6259992,-3.599 -0.01,-1.993 1.5960002,-3.618 3.5889992,-3.633 1.995,-0.016 3.624,1.586 3.644,3.579"
   style="fill:#cd853f;stroke:#a0522d;stroke-width:1;stroke-linejoin:round" />
<g
   transform="matrix(-0.17858112,0,0,0.17858112,90.186128,-7.920787)"
   id="g9077"
   style="fill:#cd853f;stroke:#a0522d;stroke-width:5.59969615999999970;stroke-linejoin:round;stroke-miterlimit:4;stroke-dasharray:none"><g
     id="g9079"
     style="fill:#cd853f;stroke:#a0522d;stroke-width:5.59969615999999970;stroke-linejoin:round;stroke-miterlimit:4;stroke-dasharray:none"><path
       inkscape:connector-curvature="0"
       d="m 207.451,177.23 c -1.563,1.34 -3.463,1.949 -5.361,1.949 -2.407,0 -4.742,-0.995 -6.429,-3.016 L 105.3,67.93 c -2.96,-3.58 -2.458,-8.881 1.057,-11.841 3.584,-2.965 8.825,-2.458 11.841,1.056 l 35.584,42.672 c 5.748,-1.62 12.115,0.167 16.197,5.083 4.072,4.854 4.682,11.506 2.062,16.868 l 36.478,43.673 c 3.004,3.523 2.507,8.824 -1.068,11.789 z"
       id="path9081"
       style="fill:#cd853f;stroke:#a0522d;stroke-width:5.59969615999999970;stroke-linejoin:round;stroke-miterlimit:4;stroke-dasharray:none" /></g><g
     id="g9083"
     style="fill:#cd853f;stroke:#a0522d;stroke-width:5.59969615999999970;stroke-linejoin:round;stroke-miterlimit:4;stroke-dasharray:none"><path
       inkscape:connector-curvature="0"
       d="m 89.772,199.623 c 0.67,-0.396 1.341,-0.895 1.955,-1.392 4.25,-3.575 6.875,-8.611 7.373,-14.136 0.335,-3.636 -0.274,-7.211 -1.731,-10.439 l 8.267,-6.865 c 23.286,24.515 58.423,31.887 88.97,20.99 L 93.738,66.919 c -16.253,28.039 -15.192,63.897 4.742,91.266 l -8.312,6.921 c -3.412,-2.397 -7.49,-3.682 -11.791,-3.682 -4.859,0 -9.607,1.731 -13.344,4.859 -8.769,7.312 -9.947,20.493 -2.63,29.268 3.966,4.752 9.774,7.474 15.974,7.474 l 0.452,0 c 7.214091,10.76029 15.492811,11.44299 10.943,-3.402 z M 71.006,188.401 c -3.402,-4.083 -2.849,-10.166 1.229,-13.578 1.731,-1.452 3.849,-2.224 6.144,-2.224 2.843,0 5.53,1.279 7.373,3.453 1.681,2.011 2.458,4.468 2.234,7.037 -0.224,2.569 -1.452,4.864 -3.463,6.53 -3.966,3.301 -10.222,2.742 -13.517,-1.218 z"
       id="path9085"
       style="fill:#cd853f;stroke:#a0522d;stroke-width:5.59969615999999970;stroke-linejoin:round;stroke-miterlimit:4;stroke-dasharray:none"
       sodipodi:nodetypes="cccccccccsccsccccscscc" /></g><g
     id="g9087"
     style="fill:#cd853f;stroke:#a0522d;stroke-width:5.59969615999999970;stroke-linejoin:round;stroke-miterlimit:4;stroke-dasharray:none"><path
       inkscape:connector-curvature="0"
       d="m 216.013,130.207 c -0.731,0 -1.463,-0.147 -2.174,-0.442 -2.843,-1.208 -4.174,-4.483 -2.965,-7.327 6.307,-14.872 4.834,-29.663 -4.134,-41.657 -10.53,-14.075 -29.348,-21.397 -49.182,-19.117 -3.082,0.355 -5.824,-1.848 -6.18,-4.91 -0.354,-3.062 1.844,-5.834 4.91,-6.185 23.703,-2.722 46.501,6.275 59.398,23.524 11.282,15.085 13.283,34.299 5.474,52.706 -0.902,2.133 -2.974,3.408 -5.147,3.408 z"
       id="path9089"
       style="fill:#cd853f;stroke:#a0522d;stroke-width:5.59969615999999970;stroke-linejoin:round;stroke-miterlimit:4;stroke-dasharray:none" /></g><g
     id="g9091"
     style="fill:#cd853f;stroke:#a0522d;stroke-width:5.59969615999999970;stroke-linejoin:round;stroke-miterlimit:4;stroke-dasharray:none"><path
       inkscape:connector-curvature="0"
       d="m 196.271,127.77 c -0.7,0 -1.401,-0.127 -2.082,-0.396 -2.854,-1.147 -4.255,-4.392 -3.117,-7.256 3.29,-8.226 2.336,-16.355 -2.671,-22.91 -5.758,-7.535 -15.954,-11.465 -26.657,-10.221 -3.057,0.35 -5.829,-1.848 -6.175,-4.915 -0.365,-3.062 1.838,-5.834 4.895,-6.185 14.562,-1.676 28.679,3.895 36.813,14.542 7.383,9.658 8.906,21.986 4.174,33.827 -0.875,2.188 -2.976,3.514 -5.18,3.514 z"
       id="path9093"
       style="fill:#cd853f;stroke:#a0522d;stroke-width:5.59969615999999970;stroke-linejoin:round;stroke-miterlimit:4;stroke-dasharray:none" /></g><g
     id="g9095"
     style="fill:#cd853f;stroke:#a0522d;stroke-width:5.59969615999999970;stroke-linejoin:round;stroke-miterlimit:4;stroke-dasharray:none"><path
       style="fill:#cd853f;stroke:#a0522d;stroke-width:5.59969615999999970;stroke-linecap:round;stroke-linejoin:round;stroke-miterlimit:4;stroke-dasharray:none"
       inkscape:connector-curvature="0"
       stroke-miterlimit="10"
       d="M 194.585,44.354"
       id="path9097" /></g></g></svg>