<?xml version="1.0" encoding="UTF-8" standalone="no"?>
<!-- Generator: Adobe Illustrator 14.0.0, SVG Export Plug-In . SVG Version: 6.00 Build 43363)  -->

<svg
   xmlns:dc="http://purl.org/dc/elements/1.1/"
   xmlns:cc="http://creativecommons.org/ns#"
   xmlns:rdf="http://www.w3.org/1999/02/22-rdf-syntax-ns#"
   xmlns:svg="http://www.w3.org/2000/svg"
   xmlns="http://www.w3.org/2000/svg"
   xmlns:sodipodi="http://sodipodi.sourceforge.net/DTD/sodipodi-0.dtd"
   xmlns:inkscape="http://www.inkscape.org/namespaces/inkscape"
   version="1.0"
   id="Layer_1"
   x="0px"
   y="0px"
   width="101.00823"
   height="51.754162"
   viewBox="0 0 101.00823 51.754163"
   enable-background="new 0 0 100 50.738"
   xml:space="preserve"
   inkscape:version="0.48.3.1 r9886"
   sodipodi:docname="walls-gold.svg"><metadata
   id="metadata3270"><rdf:RDF><cc:Work
       rdf:about=""><dc:format>image/svg+xml</dc:format><dc:type
         rdf:resource="http://purl.org/dc/dcmitype/StillImage" /></cc:Work></rdf:RDF></metadata><defs
   id="defs3268" /><sodipodi:namedview
   pagecolor="#ffffff"
   bordercolor="#666666"
   borderopacity="1"
   objecttolerance="10"
   gridtolerance="10"
   guidetolerance="10"
   inkscape:pageopacity="0"
   inkscape:pageshadow="2"
   inkscape:window-width="1918"
   inkscape:window-height="1177"
   id="namedview3266"
   showgrid="false"
   inkscape:zoom="3.48"
   inkscape:cx="-0.066476045"
   inkscape:cy="25.881243"
   inkscape:window-x="0"
   inkscape:window-y="21"
   inkscape:window-maximized="0"
   inkscape:current-layer="Layer_1"
   fit-margin-top="0"
   fit-margin-left="0"
   fit-margin-right="0"
   fit-margin-bottom="0" />
<path
   id="path5534"
   d="m 71.739237,18.240917 h -21.846 l -6.706,-3.605 V 4.4699168 l 42.972,-3.96599998 V 13.770917 l -14.421,2.812 0.001,1.658 0,0 z"
   style="fill:#ffd700;stroke:#b8860b;stroke-width:1;stroke-linejoin:round"
   inkscape:connector-curvature="0" />
<path
   id="path5536"
   d="m 2.0172366,32.269917 98.4910034,0.175 -0.017,-18.314 -28.248003,6.202 h -41.098 l -29.1280004,7.786 c -1.71699999,0.696 -2.28599999,4.151 0,4.151 z"
   style="fill:#ffd700;stroke:#b8860b;stroke-width:1;stroke-linejoin:round"
   inkscape:connector-curvature="0" />
<path
   id="path1874"
   d="m 30.039237,40.534917 c 0,3.498 -2.832,6.336 -6.33,6.346 -3.498,0.009 -6.342,-2.815 -6.361,-6.312 -0.017,-3.498 2.8,-6.351 6.297,-6.376 3.498,-0.026 6.357,2.782 6.394,6.28"
   style="fill:#ffd700;stroke:#b8860b;stroke-width:1;stroke-linejoin:round"
   inkscape:connector-curvature="0" />
<path
   id="path1876"
   d="m 44.320237,40.534917 c 0,3.498 -2.831,6.336 -6.329,6.346 -3.497,0.009 -6.343,-2.815 -6.359,-6.312 -0.017,-3.498 2.798,-6.351 6.296,-6.376 3.498,-0.026 6.357,2.782 6.392,6.28"
   style="fill:#ffd700;stroke:#b8860b;stroke-width:1;stroke-linejoin:round"
   inkscape:connector-curvature="0" />
<path
   id="path1880"
   d="m 58.351237,40.534917 c 0,3.498 -2.832,6.336 -6.33,6.346 -3.498,0.009 -6.342,-2.815 -6.36,-6.312 -0.018,-3.498 2.8,-6.351 6.298,-6.376 3.496,-0.026 6.356,2.782 6.393,6.28"
   style="fill:#ffd700;stroke:#b8860b;stroke-width:1;stroke-linejoin:round"
   inkscape:connector-curvature="0" />
<path
   id="path3511"
   d="m 72.714237,40.534917 c 0,3.498 -2.831,6.336 -6.329,6.346 -3.498,0.009 -6.342,-2.815 -6.36,-6.312 -0.018,-3.498 2.8,-6.351 6.297,-6.376 3.497,-0.026 6.357,2.782 6.392,6.28"
   style="fill:#ffd700;stroke:#b8860b;stroke-width:1;stroke-linejoin:round"
   inkscape:connector-curvature="0" />
<path
   id="path1890"
   d="m 7.7462366,34.275917 -2.958,0.135 c -1.647,4.099 -0.275,7.849 4.255,10.624 5.1030004,3.128 11.2350004,6.141 13.0110004,6.188 l 60.343,0.019 c 1.776,-0.047 7.909,-3.06 13.013,-6.188 4.529,-2.776 5.901003,-6.535 4.254,-10.634 l -2.958,-0.126 c 0.891,3.835 1.658,6.423 -3.887,9.049 -4.537,2.149 -9.335,4.709 -10.083,4.863 l -61.021,-0.01 c -0.748,-0.154 -5.535,-2.723 -10.073,-4.872 -5.5440004,-2.625 -4.7850004,-5.214 -3.8960004,-9.048 z M 0.53723661,6.4219168 v 4.2030002 l 41.20600039,1.4 V 6.3569168 l -41.20600039,0.065 z"
   style="fill:#ffd700;stroke:#b8860b;stroke-width:1;stroke-linejoin:round"
   inkscape:connector-curvature="0" />
<path
   id="path1884"
   d="m 86.967237,40.866917 c 0,3.498 -2.831,6.336 -6.328,6.345 -3.499,0.01 -6.344,-2.814 -6.361,-6.312 -0.017,-3.498 2.8,-6.351 6.298,-6.377 3.497,-0.027 6.357,2.782 6.392,6.28"
   style="fill:#ffd700;stroke:#b8860b;stroke-width:1;stroke-linejoin:round"
   inkscape:connector-curvature="0" />
<path
   id="path1886"
   d="m 95.763237,37.918917 c 0,1.995 -1.613,3.612 -3.607,3.616 -1.994,0.006 -3.616,-1.604 -3.625,-3.599 -0.011,-1.993 1.595,-3.618 3.589,-3.633 1.993,-0.016 3.624,1.586 3.644,3.579"
   style="fill:#ffd700;stroke:#b8860b;stroke-width:1;stroke-linejoin:round"
   inkscape:connector-curvature="0" />
<path
   id="path1888"
   d="m 15.870237,37.918917 c 0,1.995 -1.615,3.612 -3.608,3.616 -1.994,0.006 -3.6160004,-1.604 -3.6260004,-3.599 -0.01,-1.993 1.5960004,-3.618 3.5890004,-3.633 1.995,-0.016 3.624,1.586 3.644,3.579"
   style="fill:#ffd700;stroke:#b8860b;stroke-width:1;stroke-linejoin:round"
   inkscape:connector-curvature="0" />
</svg>